
<svg width="542px" height="138px" viewBox="0 0 542 138" version="1.1" xmlns="http://www.w3.org/2000/svg" xmlns:xlink="http://www.w3.org/1999/xlink">
    <!-- Generator: Sketch 48.2 (47327) - http://www.bohemiancoding.com/sketch -->
    <desc>getSelected</desc>
    <defs>
        <polygon id="path-1" points="0.447042857 0.0151497207 60.573 0.0151497207 60.573 116.679256 0.447042857 116.679256"></polygon>
        <polygon id="path-3" points="0 0.614372443 81.5619782 0.614372443 81.5619782 111 0 111"></polygon>
    </defs>
    <g id="Designs---Version-2" stroke="none" stroke-width="1" fill="none" fill-rule="evenodd">
        <g id="Public-Secondary" transform="translate(-550.000000, -115.000000)">
            <g id="Logo" transform="translate(550.000000, 115.000000)">
                <path d="M102.654711,106.44728 L104.291489,103.857297 C104.784704,103.050086 106.089762,102.726338 107.242053,103.693265 C108.878831,104.988256 115.587437,110.008506 124.753392,110.008506 C134.085207,110.008506 140.470823,104.828541 140.470823,98.5132991 C140.470823,91.0670983 133.107505,87.993652 122.134548,83.9446455 C110.515609,79.8956389 102,74.8797055 102,64.8348886 C102,57.7167524 108.381251,48 123.448335,48 C132.121074,48 138.67255,51.077763 141.946105,53.1842824 C142.928172,53.8317781 143.255527,55.1224529 142.596451,56.2577287 L141.614385,58.0405002 C140.959674,59.1714594 139.654616,59.4995239 138.506689,58.8520282 C137.035772,57.876468 130.484296,54.3152415 123.448335,54.3152415 C113.130088,54.3152415 109.363317,60.3110519 109.363317,64.675173 C109.363317,71.1501301 115.264446,74.2278931 124.923617,77.6294039 C137.197267,82.1618739 148,86.2108805 148,98.0298356 C148,107.742271 137.851978,116 124.753392,116 C113.623304,116 106.910333,111.46753 103.309422,108.713515 C102.654711,108.230051 102.16586,107.254491 102.654711,106.44728" id="Fill-1" fill="#000000"></path>
                <path d="M206.787951,78.117184 C206.787951,65.4867009 199.07294,54.4749572 184.312077,54.4749572 C169.879233,54.4749572 160.20048,64.8392052 159.378245,78.117184 L206.787951,78.117184 Z M184.312077,48 C201.535271,48 214,60.4707675 214,77.6337206 C214,80.2193868 214,83.9489621 211.542043,83.9489621 L159.216422,83.9489621 C159.868087,97.87012 170.041055,109.525043 184.806292,109.525043 C193.496614,109.525043 200.223194,106.123532 204.159424,103.537866 C205.633324,102.562306 206.293736,102.40259 207.111597,103.537866 L208.751693,105.799784 C209.245909,106.44728 209.079712,107.42284 208.095655,108.394084 C204.815463,111.631562 194.485045,116 184.312077,116 C164.298533,116 152,100.783851 152,81.8381261 C152,63.3844982 164.298533,48 184.312077,48 Z" id="Fill-3" fill="#000000"></path>
                <path d="M223,2.13749762 C223,0.985526566 223.954545,0 225.066061,0 L227.929697,0 C229.049697,0 230,0.985526566 230,2.13749762 L230,112.862502 C230,114.176538 229.363636,115 227.929697,115 L224.747879,115 C223.636364,115 223,114.014473 223,112.862502 L223,2.13749762 Z" id="Fill-5" fill="#000000"></path>
                <path d="M295.784087,78.117184 C295.784087,65.4867009 288.073993,54.4749572 273.309798,54.4749572 C258.882345,54.4749572 249.204275,64.8392052 248.382098,78.117184 L295.784087,78.117184 Z M273.309798,48 C290.540523,48 303,60.4707675 303,77.6337206 C303,80.2193868 303,83.9489621 300.542216,83.9489621 L248.215913,83.9489621 C248.871905,97.87012 259.048529,109.525043 273.808352,109.525043 C282.502434,109.525043 289.224166,106.123532 293.160119,103.537866 C294.638287,102.562306 295.294279,102.40259 296.112083,103.537866 L297.752063,105.799784 C298.241871,106.44728 298.080059,107.42284 297.100444,108.394084 C293.820484,111.631562 283.482048,116 273.309798,116 C253.302039,116 241,100.783851 241,81.8381261 C241,63.3844982 253.302039,48 273.309798,48 Z" id="Fill-7" fill="#000000"></path>
                <path d="M341.702727,48 C354.59508,48 363.187045,54.4749572 366.161187,58.2002158 C366.985135,59.1714594 366.822108,60.3110519 365.830727,61.1182632 L364.178426,62.7370025 C363.019612,63.8679617 361.697771,63.3801816 360.706391,62.408938 C359.05409,60.6304831 352.114426,54.9627373 341.702727,54.9627373 C326.664585,54.9627373 314.437557,66.4579445 314.437557,81.8381261 C314.437557,97.5463721 326.827612,109.201295 341.5397,109.201295 C353.929754,109.201295 360.375931,101.591062 362.191259,99.6485749 C363.350072,98.3535834 364.345859,98.3535834 365.332834,99.324827 L367.152568,100.943566 C367.980921,101.750778 368.306975,102.562306 367.650461,103.533549 C365.169807,107.42284 355.419028,116 341.702727,116 C323.029523,116 307,101.591062 307,82.0021583 C307,62.5729702 323.029523,48 341.702727,48" id="Fill-9" fill="#000000"></path>
                <path d="M380.601443,55.4424991 L372.952395,55.4424991 C371.325399,55.4424991 371,54.6286829 371,53.3230954 L371,50.7075684 C371,49.5673553 371.815667,49.075584 372.952395,49.075584 L380.601443,49.075584 L380.601443,31.2847782 C380.601443,29.9791906 381.577641,29.1653744 382.714368,29.1653744 L385.48243,29 C386.623496,29 387.595355,29.9791906 387.595355,31.1237557 L387.595355,49.075584 L410.217101,49.075584 C411.518698,49.075584 412.330026,50.0591266 412.330026,51.1993397 L412.330026,53.3230954 C412.330026,54.6286829 411.518698,55.4424991 410.217101,55.4424991 L387.595355,55.4424991 L387.595355,97.0646291 C387.595355,104.737132 388.411022,108.984643 396.060071,108.984643 C401.756724,108.984643 408.750636,105.881697 410.8679,104.576109 C412.330026,103.762293 412.985163,104.410735 413.471092,105.224551 L414.612159,107.187284 C415.258618,108.327497 415.098088,109.306688 414.121891,109.959482 C411.679228,111.922215 404.524786,116 395.244403,116 C381.742509,116 380.601443,108.0011 380.601443,97.5564004 L380.601443,55.4424991 Z" id="Fill-11" fill="#000000"></path>
                <path d="M427.511529,75.6835556 L466.650729,75.6835556 C466.427076,70.9343492 464.536993,66.7809524 460.976093,63.2147302 C457.410808,59.6571429 453.165794,57.8783492 448.232282,57.8783492 C442.750601,57.8783492 438.058283,59.5751111 434.172867,62.9772698 C430.278682,66.3794286 428.059697,70.6105397 427.511529,75.6835556 M416,82 C416,72.5015873 418.960108,64.4581587 424.875937,57.8783492 C430.800538,51.2942222 438.580139,48 448.232282,48 C456.888952,48 464.019522,50.8063492 469.610836,56.4190476 C475.20215,62.031746 478,69.103746 478,77.6264127 C478,79.0295873 477.885981,80.4888889 477.671099,82 C477.447447,83.8392381 476.460744,84.7545397 474.710992,84.7545397 L427.344886,84.7545397 C427.673787,90.2549841 430.002405,95.1423492 434.335125,99.4036825 C438.66346,103.669333 443.68468,105.802159 449.381242,105.802159 C454.862923,105.802159 460.291979,104.183111 465.664026,100.945016 C467.084878,100.18946 467.966332,99.7533968 468.295233,99.6497778 C468.624134,99.5375238 469.27755,99.8656508 470.268638,100.616889 L473.066487,104.342857 C473.719904,105.206349 474.048805,105.910095 474.048805,106.44546 C474.048805,106.98946 473.500637,107.688889 472.4043,108.552381 C466.045551,113.51746 457.985288,116 448.232282,116 C438.580139,116 430.800538,112.736 424.875937,106.203683 C418.960108,99.6756825 416,91.6063492 416,82" id="Fill-13" fill="#000000"></path>
                <g id="Group-17" transform="translate(481.000000, 0.000000)">
                    <mask id="mask-2" fill="white">
                        <use xlink:href="#path-1"></use>
                    </mask>
                    <g id="Clip-16"></g>
                    <path d="M11.8845429,82.1729709 C11.8845429,88.8551404 13.6796857,94.551416 17.2743286,99.2617978 C20.8733286,103.976561 25.5529,106.329561 31.3261143,106.329561 C34.0493286,106.329561 36.6113286,105.75117 39.0077571,104.603152 C41.3998286,103.450751 43.2821143,102.219479 44.6459,100.904954 C46.0053286,99.5904291 47.0641143,98.3854477 47.8309714,97.2900101 L49.1381143,95.4803471 L49.1381143,62.6216004 L43.9095429,60.6454309 C40.5284,59.3352875 36.9904,58.678025 33.2868286,58.678025 C26.4243286,58.678025 21.1391143,60.8689002 17.4355429,65.2506507 C13.7363286,69.6324011 11.8845429,75.271714 11.8845429,82.1729709 M0.447042857,82.0108462 C0.447042857,72.1475259 3.27482857,63.962416 8.94347143,57.4423713 C14.6034,50.9267084 22.2327571,47.666686 31.8184714,47.666686 C34.9774,47.666686 38.0274,48.0216078 40.9684714,48.7314514 C43.9095429,49.4500585 46.0314714,50.1861926 47.3429714,50.9529989 L49.2993286,51.9432745 L49.2993286,3.13495605 C49.2993286,2.37253147 49.5999714,1.65830615 50.2012571,1.00542533 C50.7981857,0.343781006 51.5345429,0.0151497207 52.4059714,0.0151497207 L57.4689714,0.0151497207 C58.2314714,0.0151497207 58.9416857,0.343781006 59.5952571,1.00542533 C60.2488286,1.65830615 60.5756143,2.37253147 60.5756143,3.13495605 L60.5756143,111.911911 C60.5756143,112.683099 60.2488286,113.392943 59.5952571,114.050206 C58.9416857,114.707468 58.2314714,115.036099 57.4689714,115.036099 L54.0399,115.036099 C52.6238286,115.036099 51.6957571,114.159749 51.2600429,112.407049 L50.2840429,107.972718 L47.9921857,110.10663 C46.4671857,111.644625 44.0141143,113.116893 40.6416857,114.545343 C37.2605429,115.965031 33.7748286,116.679256 30.1845429,116.679256 C21.9059714,116.679256 14.8779,113.287781 9.10468571,106.491686 C3.33147143,99.6999728 0.447042857,91.5411534 0.447042857,82.0108462" id="Fill-15" fill="#000000" mask="url(#mask-2)"></path>
                </g>
                <g id="Group-20" transform="translate(0.000000, 27.000000)">
                    <mask id="mask-4" fill="white">
                        <use xlink:href="#path-3"></use>
                    </mask>
                    <g id="Clip-19"></g>
                    <path d="M76.9030835,0.614372443 L45.2956799,0.614372443 L36.1214419,0.614372443 L4.57493893,0.614372443 C2.04321462,0.614372443 -0.00130501253,2.51955434 -0.00130501253,4.81363805 L-0.00130501253,108.750924 C-0.00130501253,110.223507 0.651201253,111.001311 1.63431069,111.001311 C2.19111604,111.001311 2.83057218,110.721651 3.53962899,110.210398 L37.282903,84.263219 C38.2355622,83.5291123 39.5144744,83.1576892 40.7846866,83.1576892 C42.0592489,83.1576892 43.3294611,83.5291123 44.2951703,84.263219 L78.0384444,110.210398 C78.7431511,110.721651 79.3956574,111.001311 79.9263625,111.001311 C80.8920718,111.001311 81.5619782,110.197289 81.5619782,108.750924 L81.5619782,4.81363805 C81.5010776,2.49770593 79.4478579,0.614372443 76.9030835,0.614372443" id="Fill-18" fill="#F48022" mask="url(#mask-4)"></path>
                </g>
            </g>
        </g>
    </g>
</svg>